<svg width="32" height="32" viewBox="0 0 32 32" fill="none" xmlns="http://www.w3.org/2000/svg">
<g clip-path="url(#clip0_5074_236)">
<path d="M23.2192 0H8.78076C3.93128 0 0 3.93129 0 8.78078V23.2192C0 28.0687 3.93128 32 8.78076 32H23.2192C28.0687 32 32 28.0687 32 23.2192V8.78078C32 3.93129 28.0687 0 23.2192 0Z" fill="#63C796"/>
<path d="M10.7421 11.3038C10.7421 11.3017 10.7438 11.2999 10.7459 11.2999H12.6036H23.9043C23.9113 11.2999 23.9179 11.2972 23.9229 11.2922V11.2922C23.9278 11.2873 23.9305 11.2806 23.9305 11.2736C23.9246 8.73633 21.8654 6.6807 19.3267 6.6807H11.6016C11.1269 6.6807 10.7421 6.29588 10.7421 5.82117V5.82117C10.7421 5.05542 9.81626 4.67192 9.27479 5.21339L6.80631 7.68187C6.02526 8.46292 6.02526 9.72925 6.8063 10.5103L8.52015 12.2241C9.3401 13.0441 10.7421 12.4634 10.7421 11.3038V11.3038V11.3038Z" fill="white"/>
<path d="M25.1936 24.3219C25.9746 23.5409 25.9746 22.2746 25.1936 21.4935L22.777 19.077C22.2164 18.5163 21.2578 18.9134 21.2578 19.7062V19.7062C21.2578 20.1978 20.8593 20.5962 20.3678 20.5962H19.3134C17.5812 20.5962 16.7413 18.4742 17.9662 17.2493V17.2493C19.2117 16.0039 18.3577 13.8462 16.5964 13.8462H15.6632C15.1327 13.8462 14.624 14.0569 14.2489 14.432L8.65512 20.0258C8.28005 20.4009 8.04857 20.914 8.14296 21.4359C8.53158 23.585 10.4123 25.2154 12.6732 25.2154H20.3667C20.8588 25.2154 21.2578 25.6144 21.2578 26.1065V26.1065C21.2578 26.9004 22.2176 27.2979 22.7789 26.7366L25.1936 24.3219Z" fill="white"/>
</g>
<defs>
<clipPath id="clip0_5074_236">
<rect width="32" height="32" rx="9" fill="white"/>
</clipPath>
</defs>
</svg>
