<svg width="24" height="24" viewBox="0 0 24 24" fill="none" xmlns="http://www.w3.org/2000/svg">
<g clip-path="url(#clip0_529_428)">
<rect width="24" height="24" rx="12" fill="#63C796"/>
<path fill-rule="evenodd" clip-rule="evenodd" d="M18.336 7.63031C18.1312 9.78785 17.2436 15.0315 16.793 17.4485C16.6018 18.4726 16.2195 18.814 15.8644 18.8549C15.2314 18.9095 14.7204 18.5453 14.1503 18.1389C14.0072 18.0369 13.8603 17.9322 13.7069 17.8308C13.1027 17.4325 12.6296 17.1103 12.161 16.791C11.6978 16.4754 11.2388 16.1627 10.6618 15.7825C9.4922 15.0146 9.98863 14.5431 10.6478 13.917C10.7506 13.8194 10.8572 13.7181 10.9622 13.6113C11.0044 13.5692 11.1859 13.4009 11.4483 13.1578C12.4608 12.2195 14.6768 10.1658 14.7311 9.93805C14.7405 9.89462 14.7393 9.84953 14.7274 9.8067C14.7155 9.76386 14.6933 9.72458 14.6628 9.69226C14.59 9.63163 14.4957 9.64637 14.4086 9.66C14.3976 9.66172 14.3867 9.66342 14.376 9.66495C14.2531 9.69226 12.3414 10.9622 8.61349 13.4748C8.06728 13.8435 7.57569 14.0346 7.13872 14.021C6.64713 14.0073 5.71857 13.7479 5.02216 13.5157C4.93318 13.4875 4.84625 13.4606 4.76195 13.4344C4.03121 13.2081 3.49841 13.043 3.54739 12.6145C3.5747 12.3687 3.91608 12.1229 4.55788 11.8634C8.54522 10.1292 11.1943 8.98219 12.5189 8.43597C16.3151 6.85196 17.0934 6.57886 17.6123 6.57886C17.7216 6.57886 17.981 6.60617 18.1449 6.74272C18.2814 6.85196 18.3224 7.00217 18.336 7.11141C18.3296 7.1502 18.3323 7.22573 18.3355 7.3148C18.3391 7.41385 18.3432 7.52965 18.336 7.63031Z" fill="white"/>
</g>
<defs>
<clipPath id="clip0_529_428">
<rect width="24" height="24" rx="12" fill="white"/>
</clipPath>
</defs>
</svg>
