<svg width="24" height="24" viewBox="0 0 24 24" fill="none" xmlns="http://www.w3.org/2000/svg">
<rect width="24" height="24" rx="12" fill="#63C796"/>
<path fill-rule="evenodd" clip-rule="evenodd" d="M6.21734 5.47857C5.35156 6.34362 5.35156 7.73684 5.35156 10.5226V13.4774C5.35156 16.2632 5.35156 17.6564 6.21734 18.5214C7.08238 19.3872 8.47561 19.3872 11.2613 19.3872H12.7388C15.5245 19.3872 16.9177 19.3872 17.7828 18.5214C18.6485 17.6564 18.6485 16.2632 18.6485 13.4774V10.5226C18.6485 7.73684 18.6485 6.34362 17.7828 5.47857C16.9177 4.61279 15.5245 4.61279 12.7388 4.61279H11.2613C8.47561 4.61279 7.08238 4.61279 6.21734 5.47857ZM9.04517 9.96852C8.89823 9.96852 8.7573 10.0269 8.6534 10.1308C8.5495 10.2347 8.49113 10.3756 8.49113 10.5226C8.49113 10.6695 8.5495 10.8104 8.6534 10.9143C8.7573 11.0182 8.89823 11.0766 9.04517 11.0766H14.9549C15.1019 11.0766 15.2428 11.0182 15.3467 10.9143C15.4506 10.8104 15.509 10.6695 15.509 10.5226C15.509 10.3756 15.4506 10.2347 15.3467 10.1308C15.2428 10.0269 15.1019 9.96852 14.9549 9.96852H9.04517ZM9.04517 12.9234C8.89823 12.9234 8.7573 12.9818 8.6534 13.0857C8.5495 13.1896 8.49113 13.3305 8.49113 13.4774C8.49113 13.6244 8.5495 13.7653 8.6534 13.8692C8.7573 13.9731 8.89823 14.0315 9.04517 14.0315H12.7388C12.8857 14.0315 13.0266 13.9731 13.1305 13.8692C13.2344 13.7653 13.2928 13.6244 13.2928 13.4774C13.2928 13.3305 13.2344 13.1896 13.1305 13.0857C13.0266 12.9818 12.8857 12.9234 12.7388 12.9234H9.04517Z" fill="white"/>
</svg>
